<?xml version="1.0" encoding="UTF-8" standalone="no"?>
<!-- Created with Inkscape (http://www.inkscape.org/) -->

<svg
   xmlns:dc="http://purl.org/dc/elements/1.1/"
   xmlns:cc="http://creativecommons.org/ns#"
   xmlns:rdf="http://www.w3.org/1999/02/22-rdf-syntax-ns#"
   xmlns:svg="http://www.w3.org/2000/svg"
   xmlns="http://www.w3.org/2000/svg"
   xmlns:sodipodi="http://sodipodi.sourceforge.net/DTD/sodipodi-0.dtd"
   xmlns:inkscape="http://www.inkscape.org/namespaces/inkscape"
   width="210mm"
   height="297mm"
   viewBox="0 0 210 297"
   version="1.1"
   id="svg8"
   inkscape:export-filename="/home/popaii/Documents/shakeyourbody/port/arts/nose.png"
   inkscape:export-xdpi="96"
   inkscape:export-ydpi="96"
   inkscape:version="0.92.5 (2060ec1f9f, 2020-04-08)"
   sodipodi:docname="nose.svg">
  <defs
     id="defs2" />
  <sodipodi:namedview
     id="base"
     pagecolor="#ffffff"
     bordercolor="#666666"
     borderopacity="1.0"
     inkscape:pageopacity="0.0"
     inkscape:pageshadow="2"
     inkscape:zoom="0.30669178"
     inkscape:cx="-244.22255"
     inkscape:cy="1025.4818"
     inkscape:document-units="mm"
     inkscape:current-layer="layer1"
     showgrid="false"
     showguides="true"
     inkscape:guide-bbox="true"
     inkscape:window-width="1920"
     inkscape:window-height="1016"
     inkscape:window-x="0"
     inkscape:window-y="27"
     inkscape:window-maximized="1" />
  <metadata
     id="metadata5">
    <rdf:RDF>
      <cc:Work
         rdf:about="">
        <dc:format>image/svg+xml</dc:format>
        <dc:type
           rdf:resource="http://purl.org/dc/dcmitype/StillImage" />
        <dc:title></dc:title>
      </cc:Work>
    </rdf:RDF>
  </metadata>
  <g
     inkscape:label="Layer 1"
     inkscape:groupmode="layer"
     id="layer1">
    <g
       id="g4633"
       transform="matrix(6.4769967,0,0,6.4769967,-105.64,-200.2302)">
      <path
         sodipodi:nodetypes="cccczczczzc"
         inkscape:connector-curvature="0"
         id="path3748"
         d="m 22.490617,57.664502 c 2.186196,-5.67913 3.034085,-26.217783 10.205362,-26.458335 6.9593,-0.157345 7.91046,20.336445 10.48884,27.119785 3.25317,1.30419 5.40438,5.480162 5.29167,8.032002 -0.20924,2.55875 -0.83112,4.28049 -2.64584,5.48066 -1.81472,1.20017 -6.70908,0.47246 -6.70908,0.47246 0,0 -4.13615,4.213874 -6.70908,4.157744 -2.57293,-0.0561 -6.236602,-4.252234 -6.236602,-4.252234 0,0 -5.014756,0.74742 -6.803572,-0.47247 -1.788816,-1.21989 -2.718429,-3.55736 -2.645835,-5.57515 0.07259,-2.01778 1.121217,-5.808652 5.764137,-8.504462 z"
         style="fill:#feb6b7;fill-opacity:1;stroke:none;stroke-width:0.26458332px;stroke-linecap:butt;stroke-linejoin:miter;stroke-opacity:1" />
      <path
         sodipodi:nodetypes="czcsssc"
         inkscape:connector-curvature="0"
         id="path3750-3"
         d="m 39.121569,72.311074 c 0,0 2.57299,-2.99027 4.06325,-3.02381 1.49025,-0.0335 3.15373,2.13792 3.15373,2.13792 0,0 -0.64416,0.90561 -2.61919,1.01502 -0.22496,0.0125 -0.36188,0.0619 -0.55953,0.0755 -0.6889,0.0475 -1.32547,0.0553 -2.06547,0.0156 -0.79183,-0.0425 -1.97279,-0.22017 -1.97279,-0.22017 z"
         style="fill:#fa967e;fill-opacity:1;stroke:none;stroke-width:0.26458332px;stroke-linecap:butt;stroke-linejoin:miter;stroke-opacity:1" />
      <path
         sodipodi:nodetypes="sssssss"
         inkscape:connector-curvature="0"
         id="path3778"
         d="m 32.606879,34.407689 c -3.36575,-0.052 -1.41328,15.782993 -3.34087,23.190373 -0.60004,2.30584 -4.077799,3.785052 -3.578493,6.114782 0.488456,2.2791 3.653123,5.02302 5.983923,5.03898 2.29952,0.0157 6.97555,-2.55104 7.40134,-4.81085 0.4983,-2.644662 -2.9206,-3.594662 -3.52986,-6.215982 -1.67479,-7.20574 1.38545,-23.250531 -2.93604,-23.317303 z"
         style="fill:#fcc1b3;fill-opacity:1;stroke:none;stroke-width:0.26458332px;stroke-linecap:butt;stroke-linejoin:miter;stroke-opacity:1" />
      <path
         sodipodi:nodetypes="czccccc"
         inkscape:connector-curvature="0"
         id="path3750-3-7"
         d="m 26.175887,72.216584 c 0,0 -2.57299,-2.99027 -4.06325,-3.02381 -1.49025,-0.0335 -3.170434,2.22144 -3.170434,2.22144 0,0 0.635807,0.83879 2.610837,0.9482 0.886494,0.10001 1.873216,0.11439 2.650057,0.0744 0.79183,-0.0425 1.97279,-0.22017 1.97279,-0.22017 z"
         style="fill:#fa967e;fill-opacity:1;stroke:none;stroke-width:0.26458332px;stroke-linecap:butt;stroke-linejoin:miter;stroke-opacity:1" />
    </g>
  </g>
</svg>
