<?xml version="1.0" encoding="UTF-8" standalone="no"?>
<!-- Created with Inkscape (http://www.inkscape.org/) -->

<svg
   xmlns:dc="http://purl.org/dc/elements/1.1/"
   xmlns:cc="http://creativecommons.org/ns#"
   xmlns:rdf="http://www.w3.org/1999/02/22-rdf-syntax-ns#"
   xmlns:svg="http://www.w3.org/2000/svg"
   xmlns="http://www.w3.org/2000/svg"
   xmlns:sodipodi="http://sodipodi.sourceforge.net/DTD/sodipodi-0.dtd"
   xmlns:inkscape="http://www.inkscape.org/namespaces/inkscape"
   width="87"
   height="87"
   viewBox="0 0 23.01875 23.018751"
   version="1.1"
   id="svg8"
   inkscape:version="0.92.5 (2060ec1f9f, 2020-04-08)"
   sodipodi:docname="handMarkerRight.svg"
   inkscape:export-filename="/home/popaii/Documents/shakeyourbody/port/data/graphic/sprites/hands/right.png"
   inkscape:export-xdpi="96"
   inkscape:export-ydpi="96">
  <defs
     id="defs2" />
  <sodipodi:namedview
     id="base"
     pagecolor="#ffffff"
     bordercolor="#666666"
     borderopacity="1.0"
     inkscape:pageopacity="0.0"
     inkscape:pageshadow="2"
     inkscape:zoom="3.959798"
     inkscape:cx="27.398511"
     inkscape:cy="40.726203"
     inkscape:document-units="mm"
     inkscape:current-layer="g836"
     showgrid="false"
     inkscape:window-width="960"
     inkscape:window-height="1016"
     inkscape:window-x="960"
     inkscape:window-y="27"
     inkscape:window-maximized="0"
     objecttolerance="1"
     gridtolerance="1"
     guidetolerance="1"
     units="px" />
  <metadata
     id="metadata5">
    <rdf:RDF>
      <cc:Work
         rdf:about="">
        <dc:format>image/svg+xml</dc:format>
        <dc:type
           rdf:resource="http://purl.org/dc/dcmitype/StillImage" />
        <dc:title />
      </cc:Work>
    </rdf:RDF>
  </metadata>
  <g
     inkscape:label="Layer 1"
     inkscape:groupmode="layer"
     id="layer1"
     transform="translate(0,-273.98124)">
    <g
       id="g836"
       transform="matrix(-1,0,0,1,210.8402,0)">
      <g
         id="g826"
         transform="matrix(-0.05501611,0,0,0.05501611,204.84499,277.71835)">
        <path
           sodipodi:nodetypes="ccssccsccccccsccsccsccc"
           inkscape:connector-curvature="0"
           id="path2481"
           d="m 103.19429,263.76467 c 19.15695,-2.67483 47.38427,-15.21998 66.66447,-29.62778 18.65723,-13.94231 28.171,-26.21178 31.52692,-40.65874 3.86386,-16.63357 -0.19158,-34.28919 -14.79345,-64.40445 -22.34595,-46.086886 -37.12542,-65.450933 -47.89248,-62.748575 -4.85646,1.218909 -6.21489,7.13132 -9.21341,13.325437 -0.79969,1.651937 -1.33928,5.729479 -3.00055,7.286538 -17.57636,16.47375 -4.58582,0.01533 -5.44952,-1.396 -0.46616,-0.0048 -0.62992,-4.195673 -2.32392,-7.188409 -9.1579,-16.178858 -25.356445,-39.967074 -29.813275,-43.781933 -9.17308,-7.851843 -20.14651,-6.876919 -25.54294,2.269359 -2.61545,4.432846 -2.65355,4.447147 -7.00708,2.62814 -11.984,-5.007252 -24.08644,1.722441 -26.17202,14.553224 -0.69173,4.255663 -1.231,4.740338 -6.8766,6.180545 -7.12191,1.816826 -9.31954,3.39689 -12.03923,8.656223 -2.7393791,5.297388 -1.6865697,11.104271 4.56802,25.195218 2.90242,6.538843 5.27713,12.348333 5.27713,12.909993 0,0.56166 -2.0225,1.6887 -4.49442,2.50448 -3.1511,1.03998 -5.45127,3.11601 -7.6957491,6.94595 -5.4139485,9.23825 -4.6150785,13.56415 7.2290391,39.14515 38.48158,83.11279 54.35521,104.56747 79.994649,108.12016 2.116318,0.29329 5.290806,0.33159 7.054416,0.0853 z"
           style="fill:#f8ceba;stroke-width:1.28262436" />
        <path
           sodipodi:nodetypes="cccssscsccccsccccsccsccccsscsccccscsssscccccssscssccccccscccccssssssccc"
           inkscape:connector-curvature="0"
           id="path2479"
           d="m 109.60876,262.69542 c 18.27441,-4.86725 44.44091,-17.46369 59.44042,-28.61441 12.67365,-9.42167 24.11221,-21.87317 28.30527,-30.81187 2.96956,-6.33044 3.32064,-8.63834 3.32064,-21.82906 0,-12.85633 -0.48472,-16.23228 -3.77524,-26.29377 -6.76515,-20.68596 -30.39406,-64.776799 -42.89515,-80.041079 -10.06425,-12.28881 -17.79271,-10.107947 -24.76612,4.145213 -1.86433,3.81054 -4.48001,9.066407 -4.6693,9.066407 -0.18931,0 -7.98454,-11.87559 -14.70948,-22.63359 -20.266106,-32.42015 -23.280606,-35.57873 -33.965016,-35.58804 -6.60965,-0.005 -10.99736,2.61045 -13.16837,7.85175 -1.678865,4.05312 -2.05864,4.09428 -9.628714,1.04313 -10.567158,-4.25906 -23.652927,5.26229 -23.652927,17.21021 0,2.56734 -0.825139,3.25979 -4.765516,3.99902 -7.407704,1.38969 -11.368383,3.99951 -13.778933,9.07933 -2.8963968,6.10371 -1.9879551,10.67423 5.163305,25.9775 3.107976,6.650919 5.335985,12.602069 4.95112,13.224759 -0.38486,0.62273 -2.048838,1.13223 -3.697729,1.13223 -3.963205,0 -10.5892279,7.62434 -11.680279,13.44014 -0.466011,2.48411 -0.482493,6.39244 -0.03636,8.68512 1.3558518,6.9714 32.876908,72.29565 43.76722,90.70324 11.234892,18.99005 22.858983,32.25432 32.665003,37.27412 5.74581,2.94135 21.378306,4.63044 27.576396,2.97965 z M 81.550164,250.5407 c -8.00941,-5.30524 -15.09828,-14.21946 -26.427506,-33.23258 -11.262805,-18.90163 -42.351999,-84.66697 -42.351999,-89.59046 0,-1.92793 0.820131,-4.62573 1.822532,-5.99512 1.749845,-2.39045 2.020004,-2.27595 6.773997,2.87106 9.819956,10.63177 23.359078,39.11402 23.441755,49.31434 0.04024,4.94981 2.714739,6.66255 6.387203,4.09026 1.638168,-1.1474 4.718251,-2.44204 6.844608,-2.87692 7.34927,-1.50309 7.30855,-3.88797 -0.313259,-18.34614 C 53.908262,149.53028 47.208562,137.54228 42.839264,130.13512 27.688369,104.45019 15.988538,78.949611 17.178942,74.206651 c 0.424078,-1.68976 1.556325,-3.07223 2.516075,-3.07223 6.093771,0 32.05133,44.402829 46.300907,79.202039 2.67199,6.52536 5.56836,11.86425 6.43639,11.86425 2.87122,0 13.58833,-5.28658 14.25872,-7.0336 0.36208,-0.94356 -6.23081,-14.60945 -14.65088,-30.36859 C 41.221722,67.118381 36.948031,58.507281 37.372492,54.946491 c 0.225128,-1.88872 1.406268,-4.05816 2.624746,-4.82105 1.824151,-1.14207 3.255274,-0.37182 8.103211,4.35979 11.527456,11.2515 29.178455,44.749741 40.270385,76.425569 7.034539,20.08897 5.303199,18.67877 20.275956,16.51446 5.76799,-0.83376 6.73378,-1.37467 6.73378,-3.77138 0,-1.53895 -6.36828,-14.506 -14.15173,-28.81567 C 81.312904,78.223131 69.563094,54.599981 68.553634,49.144221 c -0.94024,-5.08167 0.91939,-10.07544 3.75198,-10.07544 3.59578,0 9.68322,8.45877 22.846789,31.74651 22.357937,39.553669 29.862447,55.159279 29.759557,61.885099 -0.0486,3.17447 -0.33715,6.59041 -0.64131,7.59093 -0.36968,1.21615 0.98634,2.20202 4.0906,2.97402 2.554,0.63519 6.56334,3.1355 8.90964,5.55625 l 4.266,4.40144 -2.89075,4.80947 c -7.07479,11.77079 -8.80988,20.48528 -7.29579,36.643 1.04229,11.12279 3.13394,15.13398 6.72167,12.89036 1.37127,-0.85751 2.19468,-2.693 2.0139,-4.48918 -0.16821,-1.6712 -0.43091,-8.81033 -0.58378,-15.86477 -0.25291,-11.6683 0.0291,-13.4177 3.12067,-19.37718 1.86925,-3.60302 4.78783,-8.22047 6.4857,-10.26097 6.67838,-8.02622 6.89579,-6.81109 -6.23408,-34.84153 -10.1137,-21.59134 -12.10237,-26.868459 -12.10237,-32.114559 0,-6.74681 4.24513,-14.99408 7.71792,-14.99408 3.36104,0 19.6834,33.142759 26.84838,54.515989 8.40099,25.0602 9.35916,38.90387 3.83743,55.44306 -8.75594,26.22667 -39.32214,56.47325 -67.26278,66.55945 -9.231377,3.33242 -13.410296,3.00379 -20.362846,-1.60139 z M -7.3188418,133.48635 c 323.8766718,407.57004 161.9383218,203.78499 0,0 z"
           style="fill:#e8af95;stroke-width:1.28262436" />
        <path
           sodipodi:nodetypes="cssccscsccccscccscssccccsccsscscccscssssscscccccccccccscsccscc"
           inkscape:connector-curvature="0"
           id="path2471"
           d="m 116.47677,262.29657 c 31.90161,-9.38675 66.44674,-32.15751 79.65251,-52.50379 11.56635,-17.82038 10.21927,-40.14335 -4.35176,-72.11436 C 176.90573,105.0475 157.1799,72.829075 148.99422,67.799937 139.55134,61.998373 132.32164,67.058367 126.12532,83.805753 124.57144,88.00555 124.80741,88.300009 107.075,60.03472 99.060706,47.259985 90.47997,34.902953 88.006675,32.57462 79.240477,24.322266 66.724159,25.752425 63.233647,35.405238 c -1.876565,5.189519 -2.888628,5.543271 -7.810034,2.729955 -7.332087,-4.191416 -20.165255,-0.987819 -23.884911,5.962432 -0.820162,1.532446 -1.693584,4.998642 -1.940919,7.702654 -0.247356,2.703971 -0.510315,5.364294 -0.584375,5.911779 -0.07409,0.547485 -2.254718,0.995392 -4.845908,0.995392 -9.422128,0 -15.2098044,5.714177 -15.1868844,14.99397 0.0052,2.33807 2.9775054,10.752203 6.6038544,18.698052 3.626339,7.945858 6.274038,14.963628 5.883758,15.595088 -0.39027,0.63151 -2.158069,1.14814 -3.928424,1.14814 -1.770355,0 -5.124824,1.70301 -7.454357,3.78444 -3.6728399,3.28169 -4.3074746,4.82447 -4.7771434,11.61335 -0.5293143,7.65104 -0.1903698,8.58314 14.9141234,41.01003 16.345702,35.09163 33.476755,66.437 42.820146,78.34969 10.898149,13.89493 24.775035,21.97507 37.416367,21.78651 2.60495,-0.0401 9.81297,-1.5644 16.01783,-3.39015 z M 88.920691,259.75569 C 71.17126,254.48465 54.946814,230.96263 24.444265,166.27854 11.091177,137.96179 8.4418859,131.31076 8.3802742,125.95014 c -0.0625,-5.43632 0.4964697,-6.90982 3.6501368,-9.62251 2.048165,-1.76175 4.944875,-3.2032 6.437131,-3.2032 5.886354,0 16.844428,15.62849 31.663074,45.1581 6.794524,13.53969 8.780395,16.07315 10.035395,12.80268 C 60.9031,169.1644 47.24089,142.6704 36.629885,125.44354 28.706604,112.58015 13.063595,79.600451 12.756781,75.112518 12.3674,69.417309 13.949517,65.919957 17.68515,64.217857 c 5.476403,-2.495234 11.739368,-1.877766 14.785026,1.457652 1.499778,1.642455 11.864939,20.306794 23.033674,41.476351 23.779871,45.07297 26.222351,49.21753 27.973293,47.46658 0.825553,-0.82554 -7.966525,-18.7608 -24.666931,-50.31888 C 42.94043,74.311106 32.860487,53.81921 32.860487,51.5454 c 0,-5.255372 6.848075,-11.419319 12.686716,-11.419319 10.465949,0 11.843229,1.763898 32.126596,41.144516 26.803701,52.040083 36.148481,67.750843 36.148481,60.774213 0,-1.00508 -5.99121,-12.85069 -13.31381,-26.32366 C 81.998939,81.665234 66.51536,50.847074 65.478027,45.997421 63.856268,38.415506 68.634924,30.964916 75.175606,30.87759 c 8.333222,-0.111364 13.854969,7.064822 47.456344,61.674576 5.75471,9.352694 27.05666,52.941424 27.03435,55.318564 -0.005,0.49563 -2.43217,4.55049 -5.39447,9.01038 -2.96231,4.45984 -6.24723,10.54974 -7.29985,13.53311 -1.95059,5.52862 -2.39268,24.60932 -0.7483,32.29913 1.00226,4.68713 3.58923,4.15701 3.23827,-0.66366 -0.13289,-1.82495 -0.36324,-8.46269 -0.51197,-14.75048 -0.30821,-13.03078 2.31535,-20.51572 11.28764,-32.20347 l 4.96915,-6.47309 -8.93328,-18.74451 c -17.84683,-37.447717 -18.87845,-41.303333 -13.9535,-52.150395 4.61302,-10.159962 10.66543,-10.954606 18.52151,-2.43178 8.18182,8.876237 16.33023,22.138512 29.21935,47.557275 15.29663,30.16664 19.37296,42.65324 19.35491,59.28781 -0.012,10.92927 -0.49547,13.64111 -3.63043,20.35825 -4.47307,9.58434 -17.57906,22.94119 -32.05569,32.6693 -19.91308,13.38131 -50.65086,26.26159 -63.2707,26.51277 -2.604935,0.0517 -7.797152,-0.81471 -11.538249,-1.92568 z"
           style="fill:#926650;stroke-width:1.32724297" />
      </g>
      <ellipse
         style="fill:none;fill-opacity:0.30476194;stroke:#13ca91;stroke-width:2.43207264;stroke-miterlimit:4;stroke-dasharray:none;stroke-opacity:1"
         id="path1370"
         cx="-199.28413"
         cy="285.54413"
         transform="scale(-1,1)"
         rx="10.193113"
         ry="10.226521" />
    </g>
  </g>
</svg>
