<?xml version="1.0" encoding="UTF-8" standalone="no"?>
<!-- Created with Inkscape (http://www.inkscape.org/) -->

<svg
   xmlns:dc="http://purl.org/dc/elements/1.1/"
   xmlns:cc="http://creativecommons.org/ns#"
   xmlns:rdf="http://www.w3.org/1999/02/22-rdf-syntax-ns#"
   xmlns:svg="http://www.w3.org/2000/svg"
   xmlns="http://www.w3.org/2000/svg"
   xmlns:xlink="http://www.w3.org/1999/xlink"
   xmlns:sodipodi="http://sodipodi.sourceforge.net/DTD/sodipodi-0.dtd"
   xmlns:inkscape="http://www.inkscape.org/namespaces/inkscape"
   width="480"
   height="720"
   viewBox="0 0 127 190.5"
   version="1.1"
   id="svg2344"
   inkscape:version="0.92.5 (2060ec1f9f, 2020-04-08)"
   sodipodi:docname="hoverTop.svg">
  <defs
     id="defs2338">
    <linearGradient
       inkscape:collect="always"
       id="linearGradient2932">
      <stop
         style="stop-color:#000000;stop-opacity:0.30476192"
         offset="0"
         id="stop2928" />
      <stop
         style="stop-color:#ff76b9;stop-opacity:0;"
         offset="1"
         id="stop2930" />
    </linearGradient>
    <linearGradient
       inkscape:collect="always"
       id="linearGradient2903">
      <stop
         style="stop-color:#fb4849;stop-opacity:1"
         offset="0"
         id="stop2899" />
      <stop
         style="stop-color:#ff76b9;stop-opacity:1"
         offset="1"
         id="stop2901" />
    </linearGradient>
    <linearGradient
       inkscape:collect="always"
       xlink:href="#linearGradient2903"
       id="linearGradient2905"
       x1="42.763123"
       y1="308.12326"
       x2="105.61844"
       y2="32.301105"
       gradientUnits="userSpaceOnUse" />
    <linearGradient
       inkscape:collect="always"
       xlink:href="#linearGradient2932"
       id="linearGradient2934"
       x1="0"
       y1="201.74998"
       x2="15.501633"
       y2="201.74998"
       gradientUnits="userSpaceOnUse"
       gradientTransform="translate(-20.312484,-2.4054257)" />
  </defs>
  <sodipodi:namedview
     id="base"
     pagecolor="#ffffff"
     bordercolor="#666666"
     borderopacity="1.0"
     inkscape:pageopacity="0.0"
     inkscape:pageshadow="2"
     inkscape:zoom="0.9899495"
     inkscape:cx="126.99591"
     inkscape:cy="212.51539"
     inkscape:document-units="mm"
     inkscape:current-layer="layer1"
     showgrid="false"
     units="px"
     showguides="true"
     inkscape:guide-bbox="true"
     inkscape:window-width="960"
     inkscape:window-height="1016"
     inkscape:window-x="0"
     inkscape:window-y="27"
     inkscape:window-maximized="0"
     objecttolerance="1"
     gridtolerance="1"
     guidetolerance="1">
    <sodipodi:guide
       position="-130.02381,190.5"
       orientation="0,1"
       id="guide2889"
       inkscape:locked="false"
       inkscape:label=""
       inkscape:color="rgb(0,0,255)" />
    <sodipodi:guide
       position="-81.784475,0"
       orientation="0,1"
       id="guide2891"
       inkscape:locked="false"
       inkscape:label=""
       inkscape:color="rgb(0,0,255)" />
    <sodipodi:guide
       position="0,-68.955538"
       orientation="1,0"
       id="guide2893"
       inkscape:locked="false"
       inkscape:label=""
       inkscape:color="rgb(0,0,255)" />
    <sodipodi:guide
       position="127,-59.333835"
       orientation="1,0"
       id="guide2895"
       inkscape:locked="false"
       inkscape:label=""
       inkscape:color="rgb(0,0,255)" />
    <sodipodi:guide
       position="63.5,200.98668"
       orientation="1,0"
       id="guide845"
       inkscape:locked="false"
       inkscape:label=""
       inkscape:color="rgb(0,0,255)" />
    <sodipodi:guide
       position="-83.922631,95.25"
       orientation="0,1"
       id="guide847"
       inkscape:locked="false"
       inkscape:label=""
       inkscape:color="rgb(0,0,255)" />
    <sodipodi:guide
       position="-26.459683,47.625"
       orientation="0,1"
       id="guide1027"
       inkscape:locked="false"
       inkscape:label=""
       inkscape:color="rgb(0,0,255)" />
    <sodipodi:guide
       position="-14.967093,520"
       orientation="0,1"
       id="guide1029"
       inkscape:locked="false"
       inkscape:label=""
       inkscape:color="rgb(0,0,255)" />
    <sodipodi:guide
       position="-17.907058,137.58333"
       orientation="0,1"
       id="guide1031"
       inkscape:locked="false"
       inkscape:label=""
       inkscape:color="rgb(0,0,255)" />
  </sodipodi:namedview>
  <metadata
     id="metadata2341">
    <rdf:RDF>
      <cc:Work
         rdf:about="">
        <dc:format>image/svg+xml</dc:format>
        <dc:type
           rdf:resource="http://purl.org/dc/dcmitype/StillImage" />
        <dc:title />
      </cc:Work>
    </rdf:RDF>
  </metadata>
  <g
     inkscape:label="Layer 1"
     inkscape:groupmode="layer"
     id="layer1"
     transform="translate(0,-106.49998)">
    <rect
       style="fill:url(#linearGradient2905);fill-opacity:1;stroke:none;stroke-width:2.64583325;stroke-miterlimit:4;stroke-dasharray:none;stroke-opacity:1"
       id="rect2897"
       width="127"
       height="190.5"
       x="0"
       y="106.49998"
       ry="0" />
    <rect
       style="fill:url(#linearGradient2934);fill-opacity:1;stroke:none;stroke-width:2.64583325;stroke-miterlimit:4;stroke-dasharray:none;stroke-opacity:1"
       id="rect2926"
       width="11.759859"
       height="190.5"
       x="-20.312485"
       y="104.09455"
       ry="0" />
    <g
       id="g823"
       transform="translate(53.570824,-85.292386)">
      <rect
         transform="rotate(90)"
         ry="1.3229166"
         y="-46.781853"
         x="285.67221"
         height="73.462585"
         width="2.6458333"
         id="rect2296-8"
         style="fill:#eff1f0;fill-opacity:1;stroke:none;stroke-width:8.29136848;stroke-miterlimit:4;stroke-dasharray:none;stroke-opacity:1" />
    </g>
    <path
       inkscape:connector-curvature="0"
       id="path851"
       d="m 51.472733,175.93389 c -1.75615,-0.5554 -3.003832,-1.6284 -3.754388,-3.22873 l -0.480722,-1.02501 v -10.40364 -10.40364 l 0.532493,-1.15301 c 0.622561,-1.34805 1.578603,-2.28176 3.036046,-2.96515 l 1.034842,-0.48522 6.444732,-0.0597 c 4.196536,-0.0388 6.621378,0.008 6.951106,0.13354 0.613529,0.23401 0.70257,1.00497 0.150206,1.3006 -0.226107,0.12097 -2.716109,0.1906 -6.818917,0.1906 -7.125567,0 -7.254683,0.0178 -8.446514,1.16017 -0.338016,0.32402 -0.793751,0.92056 -1.012744,1.32565 -0.394386,0.72956 -0.398167,0.83278 -0.398167,10.86882 v 10.13227 l 0.470391,0.91414 c 0.529417,1.02886 1.685234,2.00538 2.710591,2.29017 0.932382,0.25893 19.589396,0.25893 20.521775,0 1.024933,-0.28466 2.181026,-1.26111 2.710593,-2.28942 0.470142,-0.91294 0.470426,-0.91646 0.531326,-6.62718 0.07221,-6.77211 -0.08031,-10.59334 -0.42287,-10.59334 -0.127682,0 -0.616357,0.41075 -1.085949,0.91278 l -0.853804,0.91279 v 6.83003 c 0,7.5424 -0.0065,7.58911 -1.159787,8.29231 -0.564327,0.34408 -0.990493,0.35942 -9.980396,0.35942 -9.09496,0 -9.410104,-0.0117 -10.000417,-0.37161 -1.140882,-0.69557 -1.139836,-0.68566 -1.139076,-10.80732 9.05e-4,-11.9658 -0.528163,-10.97648 5.918015,-11.06636 2.805606,-0.0391 4.311918,0.009 4.566044,0.14458 0.557273,0.29824 0.50175,1.0732 -0.09309,1.29937 -0.259778,0.0988 -2.242521,0.17958 -4.406092,0.17958 -3.330639,0 -3.978133,0.0443 -4.223123,0.28935 -0.255084,0.25508 -0.289356,1.34555 -0.289356,9.20677 0,8.67189 0.01022,8.92754 0.368271,9.28566 0.358237,0.35825 0.613783,0.36828 9.380455,0.36828 h 9.012184 l 0.286645,-0.40925 c 0.243267,-0.34731 0.286643,-1.20881 0.286643,-5.69312 0,-2.90614 -0.05029,-5.41497 -0.111767,-5.57515 -0.06147,-0.1602 -0.205368,-0.29127 -0.319767,-0.29127 -0.114395,0 -1.293978,1.08373 -2.621282,2.40831 l -2.413285,2.40832 -4.004407,1.09742 c -2.274302,0.62327 -4.160912,1.04774 -4.366647,0.98244 -0.276904,-0.0879 -0.348924,-0.25051 -0.305715,-0.69035 0.05162,-0.52551 0.144208,-0.60065 1.068317,-0.86704 1.249238,-0.36012 1.348831,-0.68907 0.473604,-1.56429 -0.361232,-0.36123 -0.659423,-0.79904 -0.662648,-0.97288 -0.0032,-0.17386 0.263386,-1.28941 0.592467,-2.47902 l 0.598329,-2.1629 7.095178,-7.07022 c 5.570937,-5.55135 7.223742,-7.09738 7.693619,-7.19659 1.19919,-0.25322 1.687395,0.0233 3.849973,2.18052 1.661238,1.65711 2.079392,2.18154 2.183853,2.73884 0.210339,1.1222 -0.03748,1.60059 -1.71937,3.31911 l -1.598461,1.63325 -0.09207,9.51624 c -0.08358,8.63894 -0.122556,9.58413 -0.422825,10.25278 -0.823583,1.83398 -2.053323,2.95915 -3.801604,3.47834 -0.865783,0.2571 -2.30669,0.29479 -10.862047,0.28411 -7.413535,-0.009 -10.046813,-0.0702 -10.600389,-0.24526 z m 11.751853,-12.92541 c 0.473777,-0.16143 0.86141,-0.38747 0.86141,-0.50229 0,-0.33764 -2.815569,-3.07103 -3.163358,-3.07103 -0.317149,0 -0.700206,0.95045 -0.702454,1.74295 -0.0011,0.38165 1.589246,2.12388 1.938702,2.12388 0.112355,0 0.591924,-0.13208 1.0657,-0.29351 z m 7.843262,-6.41213 5.045922,-5.04842 -1.82302,-1.96592 c -1.002658,-1.08123 -1.980061,-2.04995 -2.172002,-2.15267 -0.302801,-0.16207 -1.015799,0.47971 -5.387747,4.84949 -2.77132,2.76994 -5.038762,5.1267 -5.038762,5.23724 0,0.25421 3.885691,4.12871 4.140642,4.12871 0.103969,0 2.45971,-2.27179 5.234967,-5.04843 z m 7.357245,-7.19245 c 0.417996,-0.45347 0.759992,-0.97633 0.759992,-1.16191 0,-0.38467 -3.681777,-4.09007 -4.06399,-4.09007 -0.281936,0 -2.012473,1.64069 -2.012473,1.908 0,0.31121 3.929999,4.16847 4.247085,4.16847 0.170167,0 0.65139,-0.37102 1.069386,-0.82449 z"
       style="fill:#eff1f0;fill-opacity:1;stroke-width:0.18413521" />
    <path
       inkscape:connector-curvature="0"
       id="path1003"
       d="m 63.223651,263.13409 c -0.273582,-0.021 -0.447679,-0.0455 -0.386883,-0.0545 0.0608,-0.009 -0.169068,-0.0503 -0.510809,-0.0916 -2.534837,-0.30708 -5.021492,-1.36843 -7.090111,-3.0262 -1.087061,-0.87116 -2.308956,-2.251 -3.116147,-3.51896 -0.964936,-1.51574 -1.780757,-3.82694 -1.979895,-5.60897 -0.03561,-0.31868 -0.08076,-0.55352 -0.100327,-0.52185 -0.01957,0.0316 -0.05065,-0.24232 -0.06909,-0.60884 -0.0361,-0.71794 0.01079,-2.03594 0.06909,-1.94162 0.01957,0.0316 0.06472,-0.20318 0.100327,-0.52186 0.274113,-2.45296 1.429209,-5.13009 3.070091,-7.11546 0.534485,-0.64669 1.466406,-1.57046 2.101601,-2.0832 1.91298,-1.54422 4.601795,-2.67994 6.971742,-2.94477 0.318682,-0.0356 0.553516,-0.0808 0.521854,-0.10033 -0.03166,-0.0196 0.236094,-0.0503 0.595013,-0.0681 0.77482,-0.0387 1.990659,0.0117 1.885827,0.0782 -0.04547,0.0288 0.01353,0.0463 0.157905,0.0469 0.580452,0.002 3.079389,0.54638 3.226812,0.70277 0.03323,0.0353 -0.237933,1.04371 -0.29635,1.10213 -0.0084,0.008 -0.175965,-0.035 -0.372247,-0.0966 -0.521904,-0.16367 -1.376498,-0.35828 -2.070218,-0.47144 -0.850115,-0.13867 -2.787751,-0.13989 -3.675394,-0.002 -1.712689,0.26546 -3.32944,0.83766 -4.742043,1.67827 -1.202553,0.71562 -2.575597,1.901 -3.434945,2.96544 -1.438243,1.78152 -2.388506,3.95366 -2.748107,6.28172 -0.136326,0.88258 -0.136326,2.76519 0,3.64776 0.606581,3.92702 2.822565,7.2263 6.218573,9.25858 2.824182,1.69007 6.335874,2.21357 9.570201,1.42666 4.802651,-1.16848 8.564058,-5.06316 9.558635,-9.8973 0.801024,-3.89338 -0.199157,-7.85833 -2.751324,-10.90686 -0.50107,-0.59852 -1.295147,-1.36759 -1.87835,-1.8192 -0.215907,-0.16719 -0.393535,-0.31942 -0.394728,-0.33831 -0.004,-0.0633 0.670264,-0.87761 0.726644,-0.87761 0.113449,0 1.198195,0.94563 1.814242,1.58158 2.030652,2.09623 3.356797,4.77192 3.783716,7.63418 0.04644,0.31137 0.08619,0.65957 0.08833,0.77376 0.0029,0.15603 0.01441,0.1807 0.04624,0.0993 0.06354,-0.16248 0.115651,1.13341 0.07672,1.90775 -0.01843,0.36652 -0.04952,0.64049 -0.06909,0.60883 -0.01957,-0.0316 -0.06472,0.20317 -0.100327,0.52185 -0.195236,1.74712 -0.903786,3.80064 -1.873823,5.43071 -1.009621,1.69659 -2.63454,3.38821 -4.356656,4.53551 -1.649692,1.09904 -3.996069,1.96301 -5.912955,2.17722 -0.324726,0.0363 -0.549435,0.0838 -0.511205,0.10808 0.03815,0.0242 -0.05589,0.0437 -0.213349,0.0442 -0.154861,4.4e-4 -0.540363,0.0103 -0.856671,0.0218 -0.316308,0.0115 -0.798946,0.004 -1.072527,-0.0172 z M 54.850386,251.662 v -2.79108 h 0.580325 0.580325 l 8.69e-4,2.11403 c 4.42e-4,1.16273 0.02064,2.14522 0.04483,2.18332 0.03499,0.0551 1.682599,0.0664 8.054622,0.0552 l 8.010639,-0.014 0.01446,-2.16931 0.01446,-2.16931 h 0.579684 0.579683 v 2.79109 2.79109 h -9.229956 -9.229936 z m 7.323153,-3.65458 c -1.033532,-0.83565 -1.901452,-1.5415 -1.928712,-1.56855 -0.04329,-0.0429 0.605147,-0.92714 0.686561,-0.93615 0.01597,-0.001 0.550699,0.41889 1.188285,0.9348 0.637586,0.51591 1.20261,0.93871 1.255609,0.93957 0.09065,10e-4 0.0972,-0.23855 0.110538,-4.0469 L 63.5,239.28173 h 0.580325 0.580326 l 0.01418,4.04846 c 0.01334,3.81145 0.01983,4.04846 0.110773,4.04846 0.05313,0 0.618784,-0.42217 1.257013,-0.93816 0.638228,-0.51599 1.172851,-0.93874 1.18805,-0.93946 0.03148,-10e-4 0.718498,0.85869 0.718498,0.89959 0,0.0321 -3.798433,3.10151 -3.856158,3.11604 -0.02217,0.006 -0.885929,-0.67358 -1.919461,-1.50924 z m 8.041651,-10.27568 c -0.955895,-0.52299 -0.894133,-0.4196 -0.58713,-0.98281 0.143718,-0.26365 0.29109,-0.47898 0.327496,-0.47852 0.05575,7.2e-4 1.112267,0.55071 1.446366,0.75294 0.09792,0.0593 0.08789,0.0912 -0.172795,0.54957 -0.152213,0.26766 -0.299609,0.49113 -0.327547,0.49661 -0.02793,0.006 -0.336813,-0.14654 -0.68639,-0.33779 z"
       style="fill:#eff1f0;fill-opacity:1;stroke-width:0.05526908" />
  </g>
</svg>
