<?xml version="1.0" encoding="UTF-8" standalone="no"?>
<!-- Created with Inkscape (http://www.inkscape.org/) -->

<svg
   xmlns:dc="http://purl.org/dc/elements/1.1/"
   xmlns:cc="http://creativecommons.org/ns#"
   xmlns:rdf="http://www.w3.org/1999/02/22-rdf-syntax-ns#"
   xmlns:svg="http://www.w3.org/2000/svg"
   xmlns="http://www.w3.org/2000/svg"
   xmlns:xlink="http://www.w3.org/1999/xlink"
   xmlns:sodipodi="http://sodipodi.sourceforge.net/DTD/sodipodi-0.dtd"
   xmlns:inkscape="http://www.inkscape.org/namespaces/inkscape"
   width="480"
   height="720"
   viewBox="0 0 127 190.5"
   version="1.1"
   id="svg2344"
   inkscape:version="0.92.5 (2060ec1f9f, 2020-04-08)"
   sodipodi:docname="hoverBottom.svg">
  <defs
     id="defs2338">
    <linearGradient
       inkscape:collect="always"
       id="linearGradient2932">
      <stop
         style="stop-color:#000000;stop-opacity:0.30476192"
         offset="0"
         id="stop2928" />
      <stop
         style="stop-color:#ff76b9;stop-opacity:0;"
         offset="1"
         id="stop2930" />
    </linearGradient>
    <linearGradient
       inkscape:collect="always"
       id="linearGradient2903">
      <stop
         style="stop-color:#fb4849;stop-opacity:1"
         offset="0"
         id="stop2899" />
      <stop
         style="stop-color:#ff76b9;stop-opacity:1"
         offset="1"
         id="stop2901" />
    </linearGradient>
    <linearGradient
       inkscape:collect="always"
       xlink:href="#linearGradient2903"
       id="linearGradient2905"
       x1="42.763123"
       y1="308.12326"
       x2="105.61844"
       y2="32.301105"
       gradientUnits="userSpaceOnUse" />
    <linearGradient
       inkscape:collect="always"
       xlink:href="#linearGradient2932"
       id="linearGradient2934"
       x1="0"
       y1="201.74998"
       x2="15.501633"
       y2="201.74998"
       gradientUnits="userSpaceOnUse"
       gradientTransform="translate(-18.976136,-1.8708867)" />
  </defs>
  <sodipodi:namedview
     id="base"
     pagecolor="#ffffff"
     bordercolor="#666666"
     borderopacity="1.0"
     inkscape:pageopacity="0.0"
     inkscape:pageshadow="2"
     inkscape:zoom="0.9899495"
     inkscape:cx="126.99591"
     inkscape:cy="212.51539"
     inkscape:document-units="mm"
     inkscape:current-layer="layer1"
     showgrid="false"
     units="px"
     showguides="true"
     inkscape:guide-bbox="true"
     inkscape:window-width="960"
     inkscape:window-height="1016"
     inkscape:window-x="960"
     inkscape:window-y="27"
     inkscape:window-maximized="0"
     objecttolerance="1"
     gridtolerance="1"
     guidetolerance="1">
    <sodipodi:guide
       position="-130.02381,190.5"
       orientation="0,1"
       id="guide2889"
       inkscape:locked="false"
       inkscape:label=""
       inkscape:color="rgb(0,0,255)" />
    <sodipodi:guide
       position="-81.784475,0"
       orientation="0,1"
       id="guide2891"
       inkscape:locked="false"
       inkscape:label=""
       inkscape:color="rgb(0,0,255)" />
    <sodipodi:guide
       position="0,-68.955538"
       orientation="1,0"
       id="guide2893"
       inkscape:locked="false"
       inkscape:label=""
       inkscape:color="rgb(0,0,255)" />
    <sodipodi:guide
       position="127,-59.333835"
       orientation="1,0"
       id="guide2895"
       inkscape:locked="false"
       inkscape:label=""
       inkscape:color="rgb(0,0,255)" />
    <sodipodi:guide
       position="63.5,200.98668"
       orientation="1,0"
       id="guide845"
       inkscape:locked="false"
       inkscape:label=""
       inkscape:color="rgb(0,0,255)" />
    <sodipodi:guide
       position="-83.922631,95.25"
       orientation="0,1"
       id="guide847"
       inkscape:locked="false"
       inkscape:label=""
       inkscape:color="rgb(0,0,255)" />
    <sodipodi:guide
       position="-26.459683,47.625"
       orientation="0,1"
       id="guide1027"
       inkscape:locked="false"
       inkscape:label=""
       inkscape:color="rgb(0,0,255)" />
    <sodipodi:guide
       position="-14.967093,520"
       orientation="0,1"
       id="guide1029"
       inkscape:locked="false"
       inkscape:label=""
       inkscape:color="rgb(0,0,255)" />
    <sodipodi:guide
       position="-17.907058,137.58333"
       orientation="0,1"
       id="guide1031"
       inkscape:locked="false"
       inkscape:label=""
       inkscape:color="rgb(0,0,255)" />
  </sodipodi:namedview>
  <metadata
     id="metadata2341">
    <rdf:RDF>
      <cc:Work
         rdf:about="">
        <dc:format>image/svg+xml</dc:format>
        <dc:type
           rdf:resource="http://purl.org/dc/dcmitype/StillImage" />
        <dc:title />
      </cc:Work>
    </rdf:RDF>
  </metadata>
  <g
     inkscape:label="Layer 1"
     inkscape:groupmode="layer"
     id="layer1"
     transform="translate(0,-106.49998)">
    <rect
       style="fill:url(#linearGradient2905);fill-opacity:1;stroke:none;stroke-width:2.64583325;stroke-miterlimit:4;stroke-dasharray:none;stroke-opacity:1"
       id="rect2897"
       width="127"
       height="190.5"
       x="0"
       y="106.49998"
       ry="0" />
    <rect
       style="fill:url(#linearGradient2934);fill-opacity:1;stroke:none;stroke-width:2.64583325;stroke-miterlimit:4;stroke-dasharray:none;stroke-opacity:1"
       id="rect2926"
       width="11.759859"
       height="190.5"
       x="-18.976137"
       y="104.62909"
       ry="0" />
    <g
       id="g823"
       transform="translate(53.570824,-85.292386)">
      <rect
         transform="rotate(90)"
         ry="1.3229166"
         y="-46.781853"
         x="285.67221"
         height="73.462585"
         width="2.6458333"
         id="rect2296-8"
         style="fill:#eff1f0;fill-opacity:1;stroke:none;stroke-width:8.29136848;stroke-miterlimit:4;stroke-dasharray:none;stroke-opacity:1" />
    </g>
    <path
       inkscape:connector-curvature="0"
       id="path851"
       d="m 54.180087,171.81541 c -1.342807,-0.42467 -2.296822,-1.24512 -2.87072,-2.46879 l -0.367575,-0.78375 v -7.95494 -7.95494 l 0.40716,-0.88163 c 0.476029,-1.03076 1.207049,-1.7447 2.321454,-2.26724 l 0.791272,-0.37102 4.927839,-0.0456 c 3.2088,-0.0297 5.062908,0.006 5.315028,0.10211 0.469123,0.17893 0.537206,0.76843 0.114852,0.99447 -0.172888,0.0925 -2.07682,0.14574 -5.213952,0.14574 -5.448427,0 -5.547152,0.0136 -6.458463,0.88711 -0.258457,0.24775 -0.606926,0.70388 -0.774375,1.01363 -0.30156,0.55784 -0.304451,0.63676 -0.304451,8.31063 v 7.74744 l 0.359676,0.69898 c 0.404808,0.7867 1.288581,1.53338 2.0726,1.75113 0.712928,0.19799 14.978652,0.19799 15.691577,0 0.783695,-0.21765 1.667679,-0.96428 2.072602,-1.75056 0.359485,-0.69806 0.359702,-0.70075 0.406268,-5.06734 0.05522,-5.17817 -0.06141,-8.09999 -0.323339,-8.09999 -0.09763,0 -0.471285,0.31407 -0.83035,0.69794 l -0.652845,0.69794 v 5.22246 c 0,5.76714 -0.005,5.80286 -0.886808,6.34054 -0.431502,0.2631 -0.757362,0.27483 -7.631316,0.27483 -6.954284,0 -7.195253,-0.009 -7.646624,-0.28414 -0.872354,-0.53186 -0.871554,-0.52428 -0.870973,-8.26361 6.92e-4,-9.14942 -0.403849,-8.39295 4.525095,-8.46168 2.145252,-0.0299 3.297025,0.007 3.491337,0.11055 0.426108,0.22805 0.383653,0.82061 -0.07118,0.99354 -0.198634,0.0755 -1.7147,0.13731 -3.369033,0.13731 -2.546708,0 -3.041802,0.0339 -3.229129,0.22125 -0.195045,0.19504 -0.22125,1.02884 -0.22125,7.03977 0,6.6308 0.0078,6.82627 0.281591,7.10011 0.273919,0.27392 0.469318,0.28159 7.172583,0.28159 h 6.890991 l 0.219178,-0.31292 c 0.186009,-0.26557 0.219176,-0.92429 0.219176,-4.35314 0,-2.22212 -0.03846,-4.14044 -0.08546,-4.26293 -0.047,-0.12249 -0.157031,-0.22271 -0.244504,-0.22271 -0.08747,0 -0.989415,0.82866 -2.004313,1.84147 l -1.845271,1.84147 -3.061892,0.83912 c -1.739001,0.47658 -3.181561,0.80114 -3.338872,0.75121 -0.211729,-0.0672 -0.266798,-0.19155 -0.233759,-0.52786 0.03947,-0.40183 0.110266,-0.45928 0.816868,-0.66297 0.955205,-0.27536 1.031357,-0.52688 0.362132,-1.19611 -0.276209,-0.2762 -0.504215,-0.61096 -0.506681,-0.74389 -0.0024,-0.13294 0.201393,-0.98592 0.453018,-1.89553 l 0.457501,-1.65382 5.42519,-5.40611 c 4.259708,-4.24473 5.523494,-5.42687 5.882776,-5.50273 0.916937,-0.19362 1.290234,0.0178 2.943807,1.66729 1.270234,1.26708 1.589967,1.66807 1.669841,2.09421 0.160832,0.85806 -0.02866,1.22385 -1.314683,2.53788 l -1.222232,1.24884 -0.0704,7.27641 c -0.06391,6.6056 -0.09371,7.32832 -0.323305,7.83958 -0.629737,1.40232 -1.570034,2.26266 -2.906823,2.65965 -0.662004,0.19659 -1.763765,0.22541 -8.305453,0.21724 -5.668616,-0.007 -7.682101,-0.0537 -8.105381,-0.18753 z m 8.985826,-9.88316 c 0.362264,-0.12344 0.65866,-0.29627 0.65866,-0.38407 0,-0.25817 -2.15287,-2.3482 -2.4188,-2.3482 -0.242502,0 -0.535399,0.72674 -0.537118,1.33271 -8.52e-4,0.29182 1.215186,1.62399 1.482391,1.62399 0.08591,0 0.452603,-0.101 0.814867,-0.22443 z m 5.997198,-4.90291 3.858266,-3.86018 -1.393937,-1.5032 c -0.766663,-0.82675 -1.514015,-1.56746 -1.660779,-1.646 -0.231531,-0.12392 -0.776711,0.3668 -4.119636,3.70807 -2.119036,2.11798 -3.852792,3.92003 -3.852792,4.00455 0,0.19438 2.971118,3.15694 3.166062,3.15694 0.0795,0 1.880769,-1.73708 4.002816,-3.86018 z m 5.625574,-5.49957 c 0.319612,-0.34674 0.581113,-0.74653 0.581113,-0.88843 0,-0.29413 -2.815199,-3.12739 -3.107451,-3.12739 -0.215577,0 -1.538798,1.25452 -1.538798,1.45891 0,0.23796 3.004997,3.18734 3.247451,3.18734 0.130114,0 0.498072,-0.28369 0.817685,-0.63043 z"
       style="fill:#eff1f0;fill-opacity:1;stroke-width:0.14079541" />
    <path
       inkscape:connector-curvature="0"
       id="path1003"
       d="m 62.271087,268.4535 c -0.364197,-0.028 -0.595958,-0.0606 -0.515025,-0.0725 0.08094,-0.012 -0.225066,-0.067 -0.679997,-0.12194 -3.374414,-0.40879 -6.684688,-1.82168 -9.438466,-4.02853 -1.447113,-1.1597 -3.073718,-2.99657 -4.148263,-4.68449 -1.284538,-2.01778 -2.370572,-5.09449 -2.635668,-7.46675 -0.0474,-0.42423 -0.107509,-0.73686 -0.133556,-0.6947 -0.02605,0.0421 -0.06743,-0.32258 -0.09197,-0.81049 -0.04806,-0.95574 0.01436,-2.71028 0.09197,-2.58472 0.02605,0.0421 0.08616,-0.27047 0.133556,-0.69471 0.364904,-3.26542 1.902586,-6.82925 4.086953,-9.47221 0.711515,-0.86088 1.952103,-2.09062 2.797684,-2.77319 2.546589,-2.05569 6.125982,-3.56757 9.280892,-3.92012 0.424234,-0.0474 0.736849,-0.10756 0.6947,-0.13356 -0.04215,-0.0261 0.314292,-0.067 0.792091,-0.0907 1.031452,-0.0515 2.649996,0.0156 2.510442,0.1041 -0.06053,0.0383 0.01801,0.0616 0.210205,0.0624 0.772707,0.003 4.099331,0.72735 4.295583,0.93554 0.04424,0.047 -0.31674,1.3894 -0.394506,1.46717 -0.01118,0.0106 -0.234247,-0.0466 -0.495541,-0.1286 -0.694767,-0.21788 -1.832415,-0.47694 -2.755906,-0.62758 -1.131687,-0.1846 -3.711098,-0.18623 -4.892742,-0.003 -2.279958,0.35339 -4.432202,1.11511 -6.312682,2.23414 -1.600857,0.95265 -3.428674,2.53064 -4.572652,3.94764 -1.914611,2.37159 -3.179616,5.26318 -3.658323,8.36233 -0.181479,1.1749 -0.181479,3.68106 0,4.85595 0.80749,5.22771 3.757443,9.61976 8.278262,12.32517 3.759595,2.24984 8.434414,2.94674 12.74,1.89919 6.393364,-1.5555 11.400608,-6.74016 12.724604,-13.17544 1.066336,-5.18293 -0.265121,-10.46113 -3.662605,-14.51938 -0.667033,-0.79676 -1.72412,-1.82056 -2.500489,-2.42175 -0.287419,-0.22257 -0.52388,-0.42522 -0.525468,-0.45036 -0.0053,-0.0843 0.892266,-1.16829 0.96732,-1.16829 0.151025,0 1.595055,1.25884 2.415147,2.10542 2.703235,2.79054 4.46862,6.35246 5.036941,10.16274 0.06182,0.4145 0.114738,0.87803 0.117587,1.03004 0.0039,0.20771 0.01918,0.24055 0.06155,0.13219 0.08459,-0.21629 0.153957,1.50882 0.102131,2.53963 -0.02453,0.48792 -0.06592,0.85263 -0.09197,0.81048 -0.02605,-0.0421 -0.08616,0.27047 -0.133557,0.6947 -0.259901,2.32579 -1.203134,5.05947 -2.494462,7.22944 -1.344023,2.25853 -3.507141,4.51044 -5.799648,6.03775 -2.196096,1.46305 -5.31963,2.61318 -7.871418,2.89834 -0.43228,0.0483 -0.731416,0.11156 -0.680524,0.14388 0.05079,0.0322 -0.0744,0.0582 -0.284014,0.0588 -0.206153,5.9e-4 -0.719339,0.0137 -1.140413,0.029 -0.421074,0.0153 -1.06357,0.005 -1.427765,-0.0229 z M 51.124466,253.18167 v -3.71553 h 0.772538 0.772537 l 0.0012,2.81423 c 5.88e-4,1.54785 0.02748,2.85575 0.05968,2.90647 0.04658,0.0734 2.239902,0.0884 10.722439,0.0735 l 10.663887,-0.0186 0.01925,-2.88782 0.01925,-2.88782 h 0.771684 0.771683 v 3.71554 3.71554 H 63.411507 51.124473 Z m 9.748695,-4.86503 c -1.375854,-1.11243 -2.531242,-2.05207 -2.567531,-2.08808 -0.05763,-0.0571 0.805581,-1.23422 0.91396,-1.24622 0.02126,-0.001 0.7331,0.55763 1.581864,1.24442 0.848764,0.68679 1.600933,1.24963 1.671486,1.25077 0.120675,0.001 0.129394,-0.31756 0.14715,-5.38729 l 0.01888,-5.38938 h 0.772534 0.772539 l 0.01888,5.38938 c 0.01776,5.07386 0.0264,5.38937 0.147463,5.38937 0.07073,0 0.823735,-0.562 1.673355,-1.24889 0.849619,-0.6869 1.561318,-1.24967 1.581551,-1.25063 0.04191,-10e-4 0.956475,1.1431 0.956475,1.19755 0,0.0427 -5.056533,4.12878 -5.133377,4.14812 -0.02951,0.008 -1.179363,-0.89668 -2.555216,-2.00912 z m 10.705171,-13.67915 c -1.272502,-0.69621 -1.190284,-0.55858 -0.781596,-1.30833 0.191319,-0.35097 0.387503,-0.63763 0.435967,-0.63701 0.07422,9.6e-4 1.480668,0.73311 1.925425,1.00232 0.130353,0.0789 0.117001,0.12141 -0.230027,0.7316 -0.202628,0.35631 -0.398844,0.6538 -0.436036,0.66109 -0.03718,0.008 -0.44837,-0.19507 -0.913733,-0.44967 z"
       style="fill:#eff1f0;fill-opacity:1;stroke-width:0.07357506" />
  </g>
</svg>
